<svg width="996" height="240" viewBox="0 0 996 240" fill="none" xmlns="http://www.w3.org/2000/svg">
<path d="M2 0V41.585C2 85.7678 37.8172 121.585 82 121.585H418C462.183 121.585 498 157.402 498 201.585V240" stroke="#ECEDEE" stroke-width="4"/>
<path d="M334 0V39.585C334 84.8723 370.713 121.585 416 121.585V121.585C461.287 121.585 498 158.298 498 203.585V240" stroke="#ECEDEE" stroke-width="4"/>
<path d="M994 0V41.585C994 85.7678 958.183 121.585 914 121.585H578C533.817 121.585 498 157.402 498 201.585V240" stroke="#ECEDEE" stroke-width="4"/>
<path d="M662 0V39.585C662 84.8723 625.287 121.585 580 121.585V121.585C534.713 121.585 498 158.298 498 203.585V240" stroke="#ECEDEE" stroke-width="4"/>
</svg>
